<?xml version="1.0" standalone="no"?>
<!DOCTYPE svg PUBLIC "-//W3C//DTD SVG 20010904//EN"
 "http://www.w3.org/TR/2001/REC-SVG-20010904/DTD/svg10.dtd">
<svg version="1.0" xmlns="http://www.w3.org/2000/svg"
 width="512.000000pt" height="512.000000pt" viewBox="0 0 512.000000 512.000000"
 preserveAspectRatio="xMidYMid meet">

<g transform="translate(0.000000,512.000000) scale(0.100000,-0.100000)"
fill="#314D1C" stroke="none">
<path d="M2335 4624 c-600 -81 -1107 -450 -1367 -994 -226 -473 -222 -1019 11
-1540 226 -508 662 -1050 1119 -1393 129 -96 305 -190 391 -208 177 -37 422
92 770 405 416 373 796 924 959 1387 159 451 128 961 -84 1382 -91 181 -170
292 -318 446 -384 396 -937 589 -1481 515z m331 -635 c98 -17 213 -79 288
-155 219 -218 219 -567 1 -787 -181 -183 -460 -218 -683 -85 -333 199 -363
683 -57 915 137 105 287 142 451 112z m314 -1454 c143 -19 309 -58 418 -98
112 -40 126 -60 118 -173 -13 -177 -78 -317 -211 -449 -99 -100 -175 -146
-305 -187 -73 -22 -85 -23 -440 -23 -355 0 -367 1 -440 23 -130 41 -206 87
-305 187 -133 132 -200 276 -211 450 -7 112 7 132 118 172 152 55 341 94 549
112 147 14 570 5 709 -14z"/>
</g>
</svg>
